<svg width="165" height="36" fill="none" xmlns="http://www.w3.org/2000/svg"><g clip-path="url(#a)" fill="#fff"><path d="M48.273 25.282h11.74v-3.16h-7.567V10.214h-4.173v15.067ZM66.97 23.175c-1.674 0-2.546-1.307-2.546-3.267s.872-3.287 2.546-3.287 2.57 1.328 2.57 3.288c0 1.96-.896 3.266-2.57 3.266Zm.023 2.444c3.89 0 6.437-2.465 6.437-5.71 0-3.246-2.547-5.711-6.437-5.711-3.866 0-6.46 2.465-6.46 5.71 0 3.246 2.594 5.711 6.46 5.711ZM80.163 29.012c1.792 0 3.372-.358 4.433-1.201.966-.78 1.603-1.96 1.603-3.582v-9.736H82.52v1.159h-.047c-.708-.906-1.792-1.475-3.395-1.475-2.994 0-5.07 2.233-5.07 5.394 0 3.309 2.523 5.121 5.235 5.121 1.462 0 2.38-.527 3.088-1.243h.095v1.075c0 1.306-.684 2.065-2.311 2.065-1.273 0-1.91-.485-2.122-1.054H74.27c.377 2.255 2.57 3.477 5.894 3.477Zm-.023-6.87c-1.439 0-2.382-1.053-2.382-2.676 0-1.644.943-2.697 2.382-2.697 1.603 0 2.452 1.222 2.452 2.676 0 1.517-.778 2.697-2.452 2.697ZM93.761 23.175c-1.674 0-2.546-1.307-2.546-3.267s.872-3.287 2.546-3.287 2.57 1.328 2.57 3.288c0 1.96-.896 3.266-2.57 3.266Zm.024 2.444c3.89 0 6.437-2.465 6.437-5.71 0-3.246-2.547-5.711-6.437-5.711-3.867 0-6.46 2.465-6.46 5.71 0 3.246 2.593 5.711 6.46 5.711ZM101.343 25.282h3.843v-10.79h-3.843v10.79Zm0-12.286h3.843v-2.781h-3.843v2.781ZM106.853 28.844h3.843v-4.679h.048c.754.907 1.862 1.454 3.418 1.454 3.159 0 5.258-2.233 5.258-5.732 0-3.245-1.957-5.71-5.164-5.71-1.65 0-2.829.653-3.654 1.622h-.071v-1.306h-3.678v14.35Zm6.319-5.88c-1.65 0-2.593-1.201-2.593-2.95 0-1.75.848-3.077 2.522-3.077 1.651 0 2.429 1.223 2.429 3.077 0 1.833-.896 2.95-2.358 2.95ZM125.677 25.62c3.16 0 5.494-1.223 5.494-3.583 0-2.76-2.5-3.245-4.621-3.561-1.533-.253-2.9-.359-2.9-1.117 0-.675.731-.99 1.674-.99 1.061 0 1.791.294 1.933 1.264h3.536c-.188-2.129-2.027-3.456-5.446-3.456-2.853 0-5.21 1.18-5.21 3.456 0 2.528 2.24 3.034 4.338 3.35 1.603.253 3.065.358 3.065 1.328 0 .695-.731 1.075-1.886 1.075-1.273 0-2.075-.527-2.216-1.602h-3.631c.118 2.381 2.334 3.835 5.87 3.835ZM136.39 25.598c1.674 0 2.735-.59 3.607-1.643h.071v1.327h3.678v-10.79h-3.843v6.028c0 1.285-.802 2.17-2.122 2.17-1.226 0-1.816-.653-1.816-1.833v-6.364h-3.819v7.08c0 2.403 1.462 4.025 4.244 4.025ZM145.418 25.282h3.843v-6.048c0-1.285.707-2.191 1.909-2.191 1.156 0 1.698.674 1.698 1.833v6.406h3.843v-6.048c0-1.285.683-2.191 1.909-2.191 1.156 0 1.698.674 1.698 1.833v6.406h3.843v-7.017c0-2.424-1.368-4.088-4.102-4.088-1.556 0-2.853.59-3.796 1.896h-.047c-.613-1.159-1.816-1.896-3.395-1.896-1.745 0-2.9.737-3.655 1.854h-.07v-1.538h-3.678v10.79Z"/><path fill-rule="evenodd" clip-rule="evenodd" d="M9.001 3.417a19.14 19.14 0 0 0-3.78 3.086c4.51-.375 10.237.236 16.887 3.208 7.1 3.174 12.819 3.28 16.798 2.595a16.549 16.549 0 0 0-1.354-2.81c-4.555.43-10.395-.138-17.202-3.18-4.322-1.931-8.131-2.727-11.349-2.9Zm25.89 2.694C31.294 2.52 26.066.258 20.247.258c-1.71 0-3.367.195-4.948.561a39.789 39.789 0 0 1 6.809 2.356C27.09 5.402 31.393 6.119 34.89 6.11Zm4.866 9.625c-4.808.848-11.446.674-19.407-2.883-7.442-3.326-13.365-3.284-17.36-2.49-.206.04-.407.083-.603.128a16.222 16.222 0 0 0-1.24 3.196c.32-.077.65-.15.991-.217 4.847-.963 11.694-.92 19.97 2.778 7.442 3.326 13.365 3.284 17.36 2.49.136-.027.271-.055.404-.084a15.972 15.972 0 0 0-.115-2.918Zm-.527 6.624c-4.76.744-11.206.459-18.88-2.97-7.442-3.327-13.365-3.285-17.36-2.491-.886.176-1.684.39-2.387.617-.002.1-.003.201-.003.303 0 9.698 8.796 17.56 19.647 17.56 9.093 0 16.744-5.522 18.983-13.019Z"/></g><defs><clipPath id="a"><path fill="#fff" transform="translate(.5)" d="M0 0h164.053v36H0z"/></clipPath></defs></svg>